<svg xmlns="http://www.w3.org/2000/svg" width="136.932" height="117.284" viewBox="0 0 136.932 117.284"><defs><style>.a{fill:#bdc3c7;}.b{fill:#f9c795;}.c{fill:#fdd7ad;}.d{fill:#fffeeb;}.e{fill:#dcb042;}.f{fill:#fff;}.g{fill:#ecf0f1;}.h{fill:#464f5d;}.i{fill:#2fa8cc;}.j{fill:#ff5364;}.k{fill:#f0c419;}.l{fill:#ff468c;}.m{fill:#ffe733;}.n{fill:#06ccab;}</style></defs><g transform="translate(-117.844 -404.758)"><g transform="translate(158.996 434.013)"><g transform="translate(0 -1)"><path class="a" d="M47.253,50.443l1.657-9.4a4.947,4.947,0,0,1-2.17-4.99l.53-2.96v-.02l.87-4.91a.994.994,0,0,1,1.16-.81,1.012,1.012,0,0,1,.81,1.16l-.7,3.94,1.97.35.7-3.94a.982.982,0,0,1,1.15-.81,1,1,0,0,1,.82,1.16l-.7,3.93,1.97.35.7-3.94a.985.985,0,0,1,1.15-.81,1,1,0,0,1,.81,1.16l-.86,4.93a.01.01,0,0,0-.01.01l-.52,2.94a5.039,5.039,0,0,1-3.75,4.01L51.3,50.5Z"/><path class="b" d="M42,18.13A3.657,3.657,0,0,1,43,18a4,4,0,0,1,0,8,3.689,3.689,0,0,1-1.15-.18l-27.7-.01A3.426,3.426,0,0,1,13,26a4,4,0,0,1,0-8,3.657,3.657,0,0,1,1,.13Z"/><path class="c" d="M54.79,55.2c-1.65,4.82-8.29,4.72-10.52.9a.313.313,0,0,1-.05-.1c-.67-1.19-1.13-3.06.45-3.74a.955.955,0,0,0,.33-.22.983.983,0,0,0,.28-.79,2.5,2.5,0,0,1,2.31-2.72,2.045,2.045,0,0,1,.35,0,7.5,7.5,0,0,0,1.14.18c.49-.04.66-.43,1.02-.69a1.991,1.991,0,0,1,1.7-.34,1.674,1.674,0,0,1,.44.17,1.837,1.837,0,0,1,.87,1.08c.16.51.03,1.07.43,1.53a4.846,4.846,0,0,1,1.25,4.74Z"/><path class="d" d="M11,52.05V52a10.006,10.006,0,0,1,9-9.95H36A10.006,10.006,0,0,1,45,52v.04L44.22,56H11.77Z"/><path class="c" d="M31.55,36.75c-.22,2.09-.44,2.96-.52,5.25H35c.34,0,.67.02,1,.05C35.97,45.89,32.4,49,28,49s-7.97-3.11-8-6.95c.33-.03.66-.05,1-.05h3.97c-.08-2.29-.3-3.16-.52-5.25Z"/><path class="c" d="M42,12.5V22a35.355,35.355,0,0,1-.15,3.82c-.45,4.46-2.36,9.74-10.3,10.93a25.33,25.33,0,0,1-7.1,0c-7.95-1.19-9.85-6.48-10.3-10.94A35.087,35.087,0,0,1,14,22V13.5c9,0,10-5,10-5s5,4,18,4Z"/><path class="e" d="M18,52v4H16V52a1,1,0,0,1,2,0Z"/><path class="e" d="M40,52v4H38V52a1,1,0,0,1,2,0Z"/><path class="b" d="M26,44a1,1,0,0,1-2,0,33.175,33.175,0,0,0-.33-5.33c-.08-.6-.16-1.25-.24-2.1q.5.1,1.02.18c.33.05.67.09,1.02.13.07.59.13,1.08.19,1.54A36.673,36.673,0,0,1,26,44Z"/><path class="b" d="M32.57,36.57c-.08.85-.16,1.5-.24,2.1A33.175,33.175,0,0,0,32,44a1,1,0,0,1-2,0,36.934,36.934,0,0,1,.34-5.59c.06-.46.12-.94.19-1.53.35-.04.69-.08,1.02-.13Q32.075,36.675,32.57,36.57Z"/><path class="f" d="M34,29a6.5,6.5,0,0,1-12,0Z"/><path class="b" d="M29,26H27a1,1,0,0,1,0-2h2a1,1,0,0,1,0,2Z"/><path class="g" d="M21,24a3,3,0,1,1,3-3A3,3,0,0,1,21,24Z"/><path class="g" d="M32,21a3,3,0,1,1,3,3A3,3,0,0,1,32,21Z"/><path class="h" d="M22,22a1,1,0,1,1,1-1A1,1,0,0,1,22,22Z"/><path class="h" d="M33,21a1,1,0,1,1,1,1A1,1,0,0,1,33,21Z"/><path class="b" d="M24,24H18a1,1,0,0,1,0-2h6a1,1,0,0,1,0,2Z"/><path class="b" d="M38,24H32a1,1,0,0,1,0-2h6a1,1,0,0,1,0,2Z"/><path class="e" d="M42,11.5V13C29,13,24,9,24,9s-1,5-10,5V9.5C14,5.91,19,1,28,1A17.7,17.7,0,0,1,38.15,3.74,8.53,8.53,0,0,1,41.96,9c.02.08.02.67.03,1.25S42,11.42,42,11.5Z"/><path class="c" d="M11.77,56a.313.313,0,0,1-.05.1C9.5,59.92,2.86,60.02,1.2,55.2a4.846,4.846,0,0,1,1.25-4.74c.41-.46.27-1.02.43-1.53a1.837,1.837,0,0,1,.87-1.08,1.751,1.751,0,0,1,.43-.17,2.006,2.006,0,0,1,1.71.34c.36.26.53.65,1.02.69a7.5,7.5,0,0,0,1.14-.18,1.93,1.93,0,0,1,.34,0,2.5,2.5,0,0,1,2.32,2.72.966.966,0,0,0,.29.8.988.988,0,0,0,.32.21c1.58.68,1.12,2.55.45,3.74Z"/><path class="a" d="M8.39,48.53a1.93,1.93,0,0,0-.34,0,7.5,7.5,0,0,1-1.14.18c-.49-.04-.66-.43-1.02-.69a2.006,2.006,0,0,0-1.71-.34L2.99,40.93a1.058,1.058,0,0,0-.46-.67,6.289,6.289,0,0,1-2.41-4.1c-.53-3,.8-5.73,2.98-6.12s4.37,1.74,4.89,4.73a6.345,6.345,0,0,1-.86,4.68,1.024,1.024,0,0,0-.2.79Z"/></g></g><path class="i" d="M11.56,8.731a29.682,29.682,0,0,1,2.677,4.626.637.637,0,0,1-.88.88A29.682,29.682,0,0,1,8.731,11.56a2.188,2.188,0,0,1-.237-3.066,2.188,2.188,0,0,1,3.066.237Z" transform="translate(122.844 408.966)"/><path class="i" d="M49.269,46.44a29.682,29.682,0,0,0-4.626-2.677.637.637,0,0,0-.88.88,29.682,29.682,0,0,0,2.677,4.626,2.024,2.024,0,1,0,2.829-2.829Z" transform="translate(162.979 469.05)"/><path class="i" d="M46.44,8.731a29.682,29.682,0,0,0-2.677,4.626.637.637,0,0,0,.88.88,29.682,29.682,0,0,0,4.626-2.677,2.188,2.188,0,0,0,.237-3.066,2.188,2.188,0,0,0-3.066.237Z" transform="translate(140.923 423.685) rotate(-31)"/><path class="j" d="M8.336,27A29.6,29.6,0,0,1,13.5,28.378a.637.637,0,0,1,0,1.244A29.6,29.6,0,0,1,8.336,31,2.187,2.187,0,0,1,6,29,2.187,2.187,0,0,1,8.336,27Z" transform="translate(111.844 437.508)"/><path class="j" d="M49.664,27A29.6,29.6,0,0,0,44.5,28.378a.637.637,0,0,0,0,1.244A29.6,29.6,0,0,0,49.664,31,2.187,2.187,0,0,0,52,29,2.187,2.187,0,0,0,49.664,27Z" transform="translate(194.979 450.508)"/><path class="k" d="M31,37.469a27.806,27.806,0,0,0-1.378-4.986.642.642,0,0,0-1.244,0A27.806,27.806,0,0,0,27,37.469a2.015,2.015,0,1,0,4,0Z" transform="matrix(0.839, 0.545, -0.545, 0.839, 148.123, 471.56)"/><path class="i" d="M8.731,46.44a29.682,29.682,0,0,1,4.626-2.677.637.637,0,0,1,.88.88,29.682,29.682,0,0,1-2.677,4.626,2.188,2.188,0,0,1-3.066.237,2.188,2.188,0,0,1,.237-3.066Z" transform="translate(114.844 447.05)"/><path class="j" d="M137.309,256.047a2.492,2.492,0,1,1,2.492-2.492A2.5,2.5,0,0,1,137.309,256.047Zm0,0" transform="translate(7.974 194.995)"/><path class="l" d="M269.165,157.787a6.411,6.411,0,0,0-4.82,2.856,6.094,6.094,0,0,0-.961,2.744c-.119,1.046.2,4.4-1.322,4.616a1.07,1.07,0,0,0-1.017,1.017,1.03,1.03,0,0,0,1.017,1.017,3.231,3.231,0,0,0,2.562-1.593,5.776,5.776,0,0,0,.74-3.1,9,9,0,0,1,.349-2.99A4.467,4.467,0,0,1,269,159.831c.58-.034,1.208-.358,1.18-1.027A1.028,1.028,0,0,0,269.165,157.787Zm0,0" transform="translate(-27.203 285.033)"/><path class="l" d="M402.379,47.5a.874.874,0,0,1-.64-.282l-2.44-2.6a1.01,1.01,0,0,1,0-1.364l2.44-2.6a.866.866,0,0,1,1.28,0l2.44,2.6a1.009,1.009,0,0,1,0,1.363l-2.44,2.6A.874.874,0,0,1,402.379,47.5Zm0,0" transform="translate(-274.193 389.712)"/><path class="m" d="M.651,9.362H.636A.73.73,0,0,1,0,8.565,5.593,5.593,0,0,1,1.7,4.749,4.482,4.482,0,0,1,3.708,3.586a5.679,5.679,0,0,1,1.369-2.11A5.456,5.456,0,0,1,6.588.545a.63.63,0,0,1,.83.476.826.826,0,0,1-.4.993A4.325,4.325,0,0,0,5.9,2.687a4.163,4.163,0,0,0-.689.876A2.74,2.74,0,0,1,6.855,4.73l.01.014a2.915,2.915,0,0,1,.491,1.692,2.3,2.3,0,0,1-.642,1.6A1.751,1.751,0,0,1,4,7.525l-.009-.014a3.78,3.78,0,0,1-.609-2.175,3.6,3.6,0,0,0-.859.624A3.952,3.952,0,0,0,1.3,8.6.72.72,0,0,1,.651,9.362ZM4.7,5.05A2.193,2.193,0,0,0,5,6.53l.009.014c.253.374.66.5.889.279a.635.635,0,0,0,.16-.433,1.168,1.168,0,0,0-.2-.666l-.01-.014A1.508,1.508,0,0,0,4.7,5.05Zm0,0" transform="translate(210.962 430.712)"/><path class="i" d="M137.309,256.047a2.492,2.492,0,1,1,2.492-2.492A2.5,2.5,0,0,1,137.309,256.047Zm0,0" transform="translate(4.974 217.995)"/><path class="k" d="M137.309,256.047a2.492,2.492,0,1,1,2.492-2.492A2.5,2.5,0,0,1,137.309,256.047Zm0,0" transform="translate(33.974 171.995)"/><path class="n" d="M137.309,256.047a2.492,2.492,0,1,1,2.492-2.492A2.5,2.5,0,0,1,137.309,256.047Zm0,0" transform="translate(9.974 250.995)"/><path class="i" d="M137.309,256.047a2.492,2.492,0,1,1,2.492-2.492A2.5,2.5,0,0,1,137.309,256.047Zm0,0" transform="translate(112.974 192.995)"/><path class="n" d="M137.309,256.047a2.492,2.492,0,1,1,2.492-2.492A2.5,2.5,0,0,1,137.309,256.047Zm0,0" transform="translate(11.974 176.995)"/><path class="j" d="M137.309,256.047a2.492,2.492,0,1,1,2.492-2.492A2.5,2.5,0,0,1,137.309,256.047Zm0,0" transform="translate(72.974 248.995)"/><path class="i" d="M137.309,256.047a2.492,2.492,0,1,1,2.492-2.492A2.5,2.5,0,0,1,137.309,256.047Zm0,0" transform="translate(108.974 237.995)"/><path class="n" d="M137.309,256.047a2.492,2.492,0,1,1,2.492-2.492A2.5,2.5,0,0,1,137.309,256.047Zm0,0" transform="translate(59.974 165.995)"/><path class="k" d="M137.309,256.047a2.492,2.492,0,1,1,2.492-2.492A2.5,2.5,0,0,1,137.309,256.047Zm0,0" transform="translate(49.974 260.995)"/><path class="j" d="M137.309,256.047a2.492,2.492,0,1,1,2.492-2.492A2.5,2.5,0,0,1,137.309,256.047Zm0,0" transform="translate(103.974 175.995)"/><path class="k" d="M137.309,256.047a2.492,2.492,0,1,1,2.492-2.492A2.5,2.5,0,0,1,137.309,256.047Zm0,0" transform="translate(102.974 213.995)"/><path class="m" d="M.651,9.362H.636A.73.73,0,0,1,0,8.565,5.593,5.593,0,0,1,1.7,4.749,4.482,4.482,0,0,1,3.708,3.586a5.679,5.679,0,0,1,1.369-2.11A5.456,5.456,0,0,1,6.588.545a.63.63,0,0,1,.83.476.826.826,0,0,1-.4.993A4.325,4.325,0,0,0,5.9,2.687a4.163,4.163,0,0,0-.689.876A2.74,2.74,0,0,1,6.855,4.73l.01.014a2.915,2.915,0,0,1,.491,1.692,2.3,2.3,0,0,1-.642,1.6A1.751,1.751,0,0,1,4,7.525l-.009-.014a3.78,3.78,0,0,1-.609-2.175,3.6,3.6,0,0,0-.859.624A3.952,3.952,0,0,0,1.3,8.6.72.72,0,0,1,.651,9.362ZM4.7,5.05A2.193,2.193,0,0,0,5,6.53l.009.014c.253.374.66.5.889.279a.635.635,0,0,0,.16-.433,1.168,1.168,0,0,0-.2-.666l-.01-.014A1.508,1.508,0,0,0,4.7,5.05Zm0,0" transform="translate(126.962 471.712)"/><path class="m" d="M.651,9.362H.636A.73.73,0,0,1,0,8.565,5.593,5.593,0,0,1,1.7,4.749,4.482,4.482,0,0,1,3.708,3.586a5.679,5.679,0,0,1,1.369-2.11A5.456,5.456,0,0,1,6.588.545a.63.63,0,0,1,.83.476.826.826,0,0,1-.4.993A4.325,4.325,0,0,0,5.9,2.687a4.163,4.163,0,0,0-.689.876A2.74,2.74,0,0,1,6.855,4.73l.01.014a2.915,2.915,0,0,1,.491,1.692,2.3,2.3,0,0,1-.642,1.6A1.751,1.751,0,0,1,4,7.525l-.009-.014a3.78,3.78,0,0,1-.609-2.175,3.6,3.6,0,0,0-.859.624A3.952,3.952,0,0,0,1.3,8.6.72.72,0,0,1,.651,9.362ZM4.7,5.05A2.193,2.193,0,0,0,5,6.53l.009.014c.253.374.66.5.889.279a.635.635,0,0,0,.16-.433,1.168,1.168,0,0,0-.2-.666l-.01-.014A1.508,1.508,0,0,0,4.7,5.05Zm0,0" transform="translate(224.962 492.712)"/><path class="l" d="M402.379,47.5a.874.874,0,0,1-.64-.282l-2.44-2.6a1.01,1.01,0,0,1,0-1.364l2.44-2.6a.866.866,0,0,1,1.28,0l2.44,2.6a1.009,1.009,0,0,1,0,1.363l-2.44,2.6A.874.874,0,0,1,402.379,47.5Zm0,0" transform="translate(-234.193 462.712)"/><path class="l" d="M402.379,47.5a.874.874,0,0,1-.64-.282l-2.44-2.6a1.01,1.01,0,0,1,0-1.364l2.44-2.6a.866.866,0,0,1,1.28,0l2.44,2.6a1.009,1.009,0,0,1,0,1.363l-2.44,2.6A.874.874,0,0,1,402.379,47.5Zm0,0" transform="translate(-241.193 368.712)"/><path class="l" d="M402.379,47.5a.874.874,0,0,1-.64-.282l-2.44-2.6a1.01,1.01,0,0,1,0-1.364l2.44-2.6a.866.866,0,0,1,1.28,0l2.44,2.6a1.009,1.009,0,0,1,0,1.363l-2.44,2.6A.874.874,0,0,1,402.379,47.5Zm0,0" transform="translate(-187.193 370.712)"/><path class="l" d="M269.165,157.787a6.411,6.411,0,0,0-4.82,2.856,6.094,6.094,0,0,0-.961,2.744c-.119,1.046.2,4.4-1.322,4.616a1.07,1.07,0,0,0-1.017,1.017,1.03,1.03,0,0,0,1.017,1.017,3.231,3.231,0,0,0,2.562-1.593,5.776,5.776,0,0,0,.74-3.1,9,9,0,0,1,.349-2.99A4.467,4.467,0,0,1,269,159.831c.58-.034,1.208-.358,1.18-1.027A1.028,1.028,0,0,0,269.165,157.787Zm0,0" transform="translate(-128.203 333.033)"/><path class="i" d="M269.165,157.787a6.411,6.411,0,0,0-4.82,2.856,6.094,6.094,0,0,0-.961,2.744c-.119,1.046.2,4.4-1.322,4.616a1.07,1.07,0,0,0-1.017,1.017,1.03,1.03,0,0,0,1.017,1.017,3.231,3.231,0,0,0,2.562-1.593,5.776,5.776,0,0,0,.74-3.1,9,9,0,0,1,.349-2.99A4.467,4.467,0,0,1,269,159.831c.58-.034,1.208-.358,1.18-1.027A1.028,1.028,0,0,0,269.165,157.787Zm0,0" transform="translate(-105.203 276.033)"/><path class="n" d="M137.309,256.047a2.492,2.492,0,1,1,2.492-2.492A2.5,2.5,0,0,1,137.309,256.047Zm0,0" transform="translate(95.974 256.995)"/><path class="n" d="M137.309,256.047a2.492,2.492,0,1,1,2.492-2.492A2.5,2.5,0,0,1,137.309,256.047Zm0,0" transform="translate(-12.026 194.995)"/><path class="n" d="M137.309,256.047a2.492,2.492,0,1,1,2.492-2.492A2.5,2.5,0,0,1,137.309,256.047Zm0,0" transform="translate(38.974 265.995)"/><path class="n" d="M137.309,256.047a2.492,2.492,0,1,1,2.492-2.492A2.5,2.5,0,0,1,137.309,256.047Zm0,0" transform="translate(95.974 169.995)"/><path class="i" d="M137.309,256.047a2.492,2.492,0,1,1,2.492-2.492A2.5,2.5,0,0,1,137.309,256.047Zm0,0" transform="translate(87.974 192.995)"/><path class="n" d="M137.309,256.047a2.492,2.492,0,1,1,2.492-2.492A2.5,2.5,0,0,1,137.309,256.047Zm0,0" transform="translate(114.974 211.995)"/></g></svg>